<?xml version="1.0" encoding="UTF-8" standalone="no" ?>
<!DOCTYPE svg PUBLIC "-//W3C//DTD SVG 1.1//EN" "http://www.w3.org/Graphics/SVG/1.1/DTD/svg11.dtd">
<svg xmlns="http://www.w3.org/2000/svg" xmlns:xlink="http://www.w3.org/1999/xlink" version="1.1" width="500" height="500" viewBox="0 0 500 500" xml:space="preserve">
<desc>Created with Fabric.js 5.3.0</desc>
<defs>
</defs>
<g transform="matrix(1 0 0 1 435.5308293807 242.0212360013)" id="fY_3tnAmVbu-Y85ns57Vw"  >
<g style=""   >
		<g transform="matrix(0.905 0 0 0.905 -9.6348589078 -8.0100327446)" id="vFFBBRDuX-BiPCba8U3-6"  >
<path style="stroke: rgb(248,69,91); stroke-width: 0; stroke-dasharray: none; stroke-linecap: butt; stroke-dashoffset: 0; stroke-linejoin: miter; stroke-miterlimit: 4; fill: rgb(255,255,255); fill-rule: nonzero; opacity: 1;"  transform=" translate(0, 0)" d="M 0 -20.01601 C 11.04884 -20.01601 20.01601 -11.048840000000002 20.01601 0 C 20.01601 11.04884 11.048840000000002 20.01601 0 20.01601 C -11.04884 20.01601 -20.01601 11.048840000000002 -20.01601 0 C -20.01601 -11.04884 -11.048840000000002 -20.01601 0 -20.01601 z" stroke-linecap="round" />
</g>
		<g transform="matrix(0.8802799981 0 0 0.8802799981 11.5697047812 -9.2145964337)" id="j58tIwva6q1OpA5WQBe57"  >
<path style="stroke: rgb(248,69,91); stroke-width: 0; stroke-dasharray: none; stroke-linecap: butt; stroke-dashoffset: 0; stroke-linejoin: miter; stroke-miterlimit: 4; fill: rgb(255,255,255); fill-rule: nonzero; opacity: 1;"  transform=" translate(0, 0)" d="M 0 -20.01601 C 11.04884 -20.01601 20.01601 -11.048840000000002 20.01601 0 C 20.01601 11.04884 11.048840000000002 20.01601 0 20.01601 C -11.04884 20.01601 -20.01601 11.048840000000002 -20.01601 0 C -20.01601 -11.04884 -11.048840000000002 -20.01601 0 -20.01601 z" stroke-linecap="round" />
</g>
		<g transform="matrix(1 0 0 0.3926380335 8.6083368769 0.5948507283)" id="nIvlix7arQNai_kuFpXp5"  >
<path style="stroke: rgb(149,130,222); stroke-width: 0; stroke-dasharray: none; stroke-linecap: butt; stroke-dashoffset: 0; stroke-linejoin: miter; stroke-miterlimit: 4; fill: rgb(255,255,255); fill-rule: nonzero; opacity: 1;"  transform=" translate(0, 0)" d="M -32.6261 2.62795 C -32.6261 -16.84233 -26.42879 -32.6261 -18.78402 -32.6261 L 18.78402 -32.6261 L 18.78402 -32.6261 C 26.428790000000003 -32.6261 32.6261 -16.84232 32.6261 2.6279499999999985 L 32.6261 2.6279499999999985 L 32.6261 2.6279499999999985 C 32.6261 19.195469999999997 27.35272 32.626099999999994 20.84769 32.626099999999994 L -20.847679999999997 32.626099999999994 L -20.847679999999997 32.626099999999994 C -27.352719999999998 32.626099999999994 -32.62609 19.195469999999993 -32.62609 2.627949999999995 z" stroke-linecap="round" />
</g>
		<g transform="matrix(0.7056325104 0 0 0.7056325104 -27.1104895816 1.2811499179)" id="UWNfcRI587GZp6RKAef50"  >
<path style="stroke: rgb(248,69,91); stroke-width: 0; stroke-dasharray: none; stroke-linecap: butt; stroke-dashoffset: 0; stroke-linejoin: miter; stroke-miterlimit: 4; fill: rgb(255,255,255); fill-rule: nonzero; opacity: 1;"  transform=" translate(0, 0)" d="M 0 -20.01601 C 11.04884 -20.01601 20.01601 -11.048840000000002 20.01601 0 C 20.01601 11.04884 11.048840000000002 20.01601 0 20.01601 C -11.04884 20.01601 -20.01601 11.048840000000002 -20.01601 0 C -20.01601 -11.04884 -11.048840000000002 -20.01601 0 -20.01601 z" stroke-linecap="round" />
</g>
		<g transform="matrix(0.8477100019 0 0 0.8477100019 13.8154154647 8.4050992848)" id="1dMs641gOKEHkmQALjypa"  >
<path style="stroke: rgb(248,69,91); stroke-width: 0; stroke-dasharray: none; stroke-linecap: butt; stroke-dashoffset: 0; stroke-linejoin: miter; stroke-miterlimit: 4; fill: rgb(255,255,255); fill-rule: nonzero; opacity: 1;"  transform=" translate(0, 0)" d="M 0 -20.01601 C 11.04884 -20.01601 20.01601 -11.048840000000002 20.01601 0 C 20.01601 11.04884 11.048840000000002 20.01601 0 20.01601 C -11.04884 20.01601 -20.01601 11.048840000000002 -20.01601 0 C -20.01601 -11.04884 -11.048840000000002 -20.01601 0 -20.01601 z" stroke-linecap="round" />
</g>
		<g transform="matrix(0.6709224757 0 0 0.6709224757 -9.3836579089 13.4050992849)" id="boG1v8ybJqQQhoOr_-3qG"  >
<path style="stroke: rgb(248,69,91); stroke-width: 0; stroke-dasharray: none; stroke-linecap: butt; stroke-dashoffset: 0; stroke-linejoin: miter; stroke-miterlimit: 4; fill: rgb(255,255,255); fill-rule: nonzero; opacity: 1;"  transform=" translate(0, 0)" d="M 0 -20.01601 C 11.04884 -20.01601 20.01601 -11.048840000000002 20.01601 0 C 20.01601 11.04884 11.048840000000002 20.01601 0 20.01601 C -11.04884 20.01601 -20.01601 11.048840000000002 -20.01601 0 C -20.01601 -11.04884 -11.048840000000002 -20.01601 0 -20.01601 z" stroke-linecap="round" />
</g>
</g>
</g>
<g transform="matrix(-0.8035601224 0 0 0.8035601224 451.9844419575 452.5031199642)" id="XMH0Q7H8aPzrFsDqsQiyt"  >
<g style=""   >
		<g transform="matrix(0.905 0 0 0.905 -9.6348589078 -8.0100327446)" id="fgVFZAkPtoqmHY-eS3nKB"  >
<path style="stroke: rgb(248,69,91); stroke-width: 0; stroke-dasharray: none; stroke-linecap: butt; stroke-dashoffset: 0; stroke-linejoin: miter; stroke-miterlimit: 4; fill: rgb(255,255,255); fill-rule: nonzero; opacity: 1;"  transform=" translate(0, 0)" d="M 0 -20.01601 C 11.04884 -20.01601 20.01601 -11.048840000000002 20.01601 0 C 20.01601 11.04884 11.048840000000002 20.01601 0 20.01601 C -11.04884 20.01601 -20.01601 11.048840000000002 -20.01601 0 C -20.01601 -11.04884 -11.048840000000002 -20.01601 0 -20.01601 z" stroke-linecap="round" />
</g>
		<g transform="matrix(0.8802799981 0 0 0.8802799981 11.5697047812 -9.2145964337)" id="CHlkqQJ78lbqXMFYSAg-Q"  >
<path style="stroke: rgb(248,69,91); stroke-width: 0; stroke-dasharray: none; stroke-linecap: butt; stroke-dashoffset: 0; stroke-linejoin: miter; stroke-miterlimit: 4; fill: rgb(255,255,255); fill-rule: nonzero; opacity: 1;"  transform=" translate(0, 0)" d="M 0 -20.01601 C 11.04884 -20.01601 20.01601 -11.048840000000002 20.01601 0 C 20.01601 11.04884 11.048840000000002 20.01601 0 20.01601 C -11.04884 20.01601 -20.01601 11.048840000000002 -20.01601 0 C -20.01601 -11.04884 -11.048840000000002 -20.01601 0 -20.01601 z" stroke-linecap="round" />
</g>
		<g transform="matrix(1 0 0 0.3926380335 8.6083368769 0.5948507283)" id="jFR1KKcvGLc5mejApTcng"  >
<path style="stroke: rgb(149,130,222); stroke-width: 0; stroke-dasharray: none; stroke-linecap: butt; stroke-dashoffset: 0; stroke-linejoin: miter; stroke-miterlimit: 4; fill: rgb(255,255,255); fill-rule: nonzero; opacity: 1;"  transform=" translate(0, 0)" d="M -32.6261 2.62795 C -32.6261 -16.84233 -26.42879 -32.6261 -18.78402 -32.6261 L 18.78402 -32.6261 L 18.78402 -32.6261 C 26.428790000000003 -32.6261 32.6261 -16.84232 32.6261 2.6279499999999985 L 32.6261 2.6279499999999985 L 32.6261 2.6279499999999985 C 32.6261 19.195469999999997 27.35272 32.626099999999994 20.84769 32.626099999999994 L -20.847679999999997 32.626099999999994 L -20.847679999999997 32.626099999999994 C -27.352719999999998 32.626099999999994 -32.62609 19.195469999999993 -32.62609 2.627949999999995 z" stroke-linecap="round" />
</g>
		<g transform="matrix(0.7056325104 0 0 0.7056325104 -27.1104895816 1.2811499179)" id="0zo7X7B67WOC63-4yxjw6"  >
<path style="stroke: rgb(248,69,91); stroke-width: 0; stroke-dasharray: none; stroke-linecap: butt; stroke-dashoffset: 0; stroke-linejoin: miter; stroke-miterlimit: 4; fill: rgb(255,255,255); fill-rule: nonzero; opacity: 1;"  transform=" translate(0, 0)" d="M 0 -20.01601 C 11.04884 -20.01601 20.01601 -11.048840000000002 20.01601 0 C 20.01601 11.04884 11.048840000000002 20.01601 0 20.01601 C -11.04884 20.01601 -20.01601 11.048840000000002 -20.01601 0 C -20.01601 -11.04884 -11.048840000000002 -20.01601 0 -20.01601 z" stroke-linecap="round" />
</g>
		<g transform="matrix(0.8477100019 0 0 0.8477100019 13.8154154647 8.4050992848)" id="uyCGya2rvYYijODH2wI4z"  >
<path style="stroke: rgb(248,69,91); stroke-width: 0; stroke-dasharray: none; stroke-linecap: butt; stroke-dashoffset: 0; stroke-linejoin: miter; stroke-miterlimit: 4; fill: rgb(255,255,255); fill-rule: nonzero; opacity: 1;"  transform=" translate(0, 0)" d="M 0 -20.01601 C 11.04884 -20.01601 20.01601 -11.048840000000002 20.01601 0 C 20.01601 11.04884 11.048840000000002 20.01601 0 20.01601 C -11.04884 20.01601 -20.01601 11.048840000000002 -20.01601 0 C -20.01601 -11.04884 -11.048840000000002 -20.01601 0 -20.01601 z" stroke-linecap="round" />
</g>
		<g transform="matrix(0.6709224757 0 0 0.6709224757 -9.3836579089 13.4050992849)" id="HV3q_ybkUqN09k2oAIyZS"  >
<path style="stroke: rgb(248,69,91); stroke-width: 0; stroke-dasharray: none; stroke-linecap: butt; stroke-dashoffset: 0; stroke-linejoin: miter; stroke-miterlimit: 4; fill: rgb(255,255,255); fill-rule: nonzero; opacity: 1;"  transform=" translate(0, 0)" d="M 0 -20.01601 C 11.04884 -20.01601 20.01601 -11.048840000000002 20.01601 0 C 20.01601 11.04884 11.048840000000002 20.01601 0 20.01601 C -11.04884 20.01601 -20.01601 11.048840000000002 -20.01601 0 C -20.01601 -11.04884 -11.048840000000002 -20.01601 0 -20.01601 z" stroke-linecap="round" />
</g>
</g>
</g>
<g transform="matrix(1 0 0 1 214.0086145659 323.9553006885)" id="hUH01AuJ8wEayYmXgZUHT"  >
<g style=""   >
		<g transform="matrix(0.6 0 0 0.6 -32.1120207302 2.0856681675)" id="oF8xnoScWNW2SRyp4B3_N"  >
<path style="stroke: rgb(118,237,87); stroke-width: 0; stroke-dasharray: none; stroke-linecap: butt; stroke-dashoffset: 0; stroke-linejoin: miter; stroke-miterlimit: 4; fill: rgb(255,255,255); fill-rule: nonzero; opacity: 1;"  transform=" translate(0, 0)" d="M 0 -20.01601 C 11.04884 -20.01601 20.01601 -11.048840000000002 20.01601 0 C 20.01601 11.04884 11.048840000000002 20.01601 0 20.01601 C -11.04884 20.01601 -20.01601 11.048840000000002 -20.01601 0 C -20.01601 -11.04884 -11.048840000000002 -20.01601 0 -20.01601 z" stroke-linecap="round" />
</g>
		<g transform="matrix(0.6 0 0 0.6 -14.5235467233 10.6533455488)" id="UW5itrr6XprpSosg3aytA"  >
<path style="stroke: rgb(118,237,87); stroke-width: 0; stroke-dasharray: none; stroke-linecap: butt; stroke-dashoffset: 0; stroke-linejoin: miter; stroke-miterlimit: 4; fill: rgb(255,255,255); fill-rule: nonzero; opacity: 1;"  transform=" translate(0, 0)" d="M 0 -20.01601 C 11.04884 -20.01601 20.01601 -11.048840000000002 20.01601 0 C 20.01601 11.04884 11.048840000000002 20.01601 0 20.01601 C -11.04884 20.01601 -20.01601 11.048840000000002 -20.01601 0 C -20.01601 -11.04884 -11.048840000000002 -20.01601 0 -20.01601 z" stroke-linecap="round" />
</g>
		<g transform="matrix(0.74 0 0 0.74 -5.3001717861 -9.9999989602)" id="Qart3s2RBzYGatpsRdezR"  >
<path style="stroke: rgb(212,247,200); stroke-width: 0; stroke-dasharray: none; stroke-linecap: butt; stroke-dashoffset: 0; stroke-linejoin: miter; stroke-miterlimit: 4; fill: rgb(255,255,255); fill-rule: nonzero; opacity: 1;"  transform=" translate(0, 0)" d="M 0 -20.01601 C 11.04884 -20.01601 20.01601 -11.048840000000002 20.01601 0 C 20.01601 11.04884 11.048840000000002 20.01601 0 20.01601 C -11.04884 20.01601 -20.01601 11.048840000000002 -20.01601 0 C -20.01601 -11.04884 -11.048840000000002 -20.01601 0 -20.01601 z" stroke-linecap="round" />
</g>
		<g transform="matrix(0.74 0 0 0.74 14.699828214 -9.9999989602)" id="_M0IBEY0slc16fKDyRZ4f"  >
<path style="stroke: rgb(212,247,200); stroke-width: 0; stroke-dasharray: none; stroke-linecap: butt; stroke-dashoffset: 0; stroke-linejoin: miter; stroke-miterlimit: 4; fill: rgb(255,255,255); fill-rule: nonzero; opacity: 1;"  transform=" translate(0, 0)" d="M 0 -20.01601 C 11.04884 -20.01601 20.01601 -11.048840000000002 20.01601 0 C 20.01601 11.04884 11.048840000000002 20.01601 0 20.01601 C -11.04884 20.01601 -20.01601 11.048840000000002 -20.01601 0 C -20.01601 -11.04884 -11.048840000000002 -20.01601 0 -20.01601 z" stroke-linecap="round" />
</g>
		<g transform="matrix(0.74 0 0 0.74 7.699828214 10.0000010398)" id="IrgIGJIy_tRP-OBUZB0tx"  >
<path style="stroke: rgb(212,247,200); stroke-width: 0; stroke-dasharray: none; stroke-linecap: butt; stroke-dashoffset: 0; stroke-linejoin: miter; stroke-miterlimit: 4; fill: rgb(255,255,255); fill-rule: nonzero; opacity: 1;"  transform=" translate(0, 0)" d="M 0 -20.01601 C 11.04884 -20.01601 20.01601 -11.048840000000002 20.01601 0 C 20.01601 11.04884 11.048840000000002 20.01601 0 20.01601 C -11.04884 20.01601 -20.01601 11.048840000000002 -20.01601 0 C -20.01601 -11.04884 -11.048840000000002 -20.01601 0 -20.01601 z" stroke-linecap="round" />
</g>
		<g transform="matrix(0.5494797965 0 0 0.5494797965 -21.113626085 -7.1865446613)" id="-3AY1_wPc_HbjpPvKbI2s"  >
<path style="stroke: rgb(212,247,200); stroke-width: 0; stroke-dasharray: none; stroke-linecap: butt; stroke-dashoffset: 0; stroke-linejoin: miter; stroke-miterlimit: 4; fill: rgb(255,255,255); fill-rule: nonzero; opacity: 1;"  transform=" translate(0, 0)" d="M 0 -20.01601 C 11.04884 -20.01601 20.01601 -11.048840000000002 20.01601 0 C 20.01601 11.04884 11.048840000000002 20.01601 0 20.01601 C -11.04884 20.01601 -20.01601 11.048840000000002 -20.01601 0 C -20.01601 -11.04884 -11.048840000000002 -20.01601 0 -20.01601 z" stroke-linecap="round" />
</g>
		<g transform="matrix(0.7349565691 0 0 0.7349565691 29.4107283152 3.811849984)" id="EudoHWFZaGiWZE6opoj9e"  >
<path style="stroke: rgb(212,247,200); stroke-width: 0; stroke-dasharray: none; stroke-linecap: butt; stroke-dashoffset: 0; stroke-linejoin: miter; stroke-miterlimit: 4; fill: rgb(255,255,255); fill-rule: nonzero; opacity: 1;"  transform=" translate(0, 0)" d="M 0 -20.01601 C 11.04884 -20.01601 20.01601 -11.048840000000002 20.01601 0 C 20.01601 11.04884 11.048840000000002 20.01601 0 20.01601 C -11.04884 20.01601 -20.01601 11.048840000000002 -20.01601 0 C -20.01601 -11.04884 -11.048840000000002 -20.01601 0 -20.01601 z" stroke-linecap="round" />
</g>
		<g transform="matrix(0.9665422147 0 0 -0.2239399652 -0.112019186 1.7334004438)" id="sXR4L27dol6uCzSwvh9G5"  >
<path style="stroke: rgb(109,233,33); stroke-width: 0; stroke-dasharray: none; stroke-linecap: butt; stroke-dashoffset: 0; stroke-linejoin: miter; stroke-miterlimit: 4; fill: rgb(255,255,255); fill-rule: nonzero; opacity: 1;"  transform=" translate(0, 0)" d="M -39.83186 33.10652 C -39.83186 -7.17624 -32.26582 -39.83185999999999 -22.93263 -39.83185999999999 L 22.93263 -39.83185999999999 L 22.93263 -39.83185999999999 C 32.26582 -39.83185999999999 39.83186 -7.17622999999999 39.83186 33.10652 L 39.83186 33.10652 L 39.83186 33.10652 C 39.83186 36.820820000000005 39.13423 39.831860000000006 38.273649999999996 39.831860000000006 L -38.27366 39.831860000000006 L -38.27366 39.831860000000006 C -39.13423 39.831860000000006 -39.83187 36.820820000000005 -39.83187 33.10652 z" stroke-linecap="round" />
</g>
</g>
</g>
<g transform="matrix(-0.7668781986 0 0 0.7668781986 72.8265758303 424.6079313747)" id="0WInv9ySf26pY3LCZdm_e"  >
<g style=""   >
		<g transform="matrix(0.6 0 0 0.6 -32.1120207302 2.0856681675)" id="56C6oodfhpv1I3wGPDAgm"  >
<path style="stroke: rgb(118,237,87); stroke-width: 0; stroke-dasharray: none; stroke-linecap: butt; stroke-dashoffset: 0; stroke-linejoin: miter; stroke-miterlimit: 4; fill: rgb(255,255,255); fill-rule: nonzero; opacity: 1;"  transform=" translate(0, 0)" d="M 0 -20.01601 C 11.04884 -20.01601 20.01601 -11.048840000000002 20.01601 0 C 20.01601 11.04884 11.048840000000002 20.01601 0 20.01601 C -11.04884 20.01601 -20.01601 11.048840000000002 -20.01601 0 C -20.01601 -11.04884 -11.048840000000002 -20.01601 0 -20.01601 z" stroke-linecap="round" />
</g>
		<g transform="matrix(0.6 0 0 0.6 -14.5235467233 10.6533455488)" id="T98m2kS7guE2_wtK1L8LM"  >
<path style="stroke: rgb(118,237,87); stroke-width: 0; stroke-dasharray: none; stroke-linecap: butt; stroke-dashoffset: 0; stroke-linejoin: miter; stroke-miterlimit: 4; fill: rgb(255,255,255); fill-rule: nonzero; opacity: 1;"  transform=" translate(0, 0)" d="M 0 -20.01601 C 11.04884 -20.01601 20.01601 -11.048840000000002 20.01601 0 C 20.01601 11.04884 11.048840000000002 20.01601 0 20.01601 C -11.04884 20.01601 -20.01601 11.048840000000002 -20.01601 0 C -20.01601 -11.04884 -11.048840000000002 -20.01601 0 -20.01601 z" stroke-linecap="round" />
</g>
		<g transform="matrix(0.74 0 0 0.74 -5.3001717861 -9.9999989602)" id="NnTGEUlizEw1UL8YR08PG"  >
<path style="stroke: rgb(212,247,200); stroke-width: 0; stroke-dasharray: none; stroke-linecap: butt; stroke-dashoffset: 0; stroke-linejoin: miter; stroke-miterlimit: 4; fill: rgb(255,255,255); fill-rule: nonzero; opacity: 1;"  transform=" translate(0, 0)" d="M 0 -20.01601 C 11.04884 -20.01601 20.01601 -11.048840000000002 20.01601 0 C 20.01601 11.04884 11.048840000000002 20.01601 0 20.01601 C -11.04884 20.01601 -20.01601 11.048840000000002 -20.01601 0 C -20.01601 -11.04884 -11.048840000000002 -20.01601 0 -20.01601 z" stroke-linecap="round" />
</g>
		<g transform="matrix(0.74 0 0 0.74 14.699828214 -9.9999989602)" id="Ku7xAj5WNxNjM-A6xtIcJ"  >
<path style="stroke: rgb(212,247,200); stroke-width: 0; stroke-dasharray: none; stroke-linecap: butt; stroke-dashoffset: 0; stroke-linejoin: miter; stroke-miterlimit: 4; fill: rgb(255,255,255); fill-rule: nonzero; opacity: 1;"  transform=" translate(0, 0)" d="M 0 -20.01601 C 11.04884 -20.01601 20.01601 -11.048840000000002 20.01601 0 C 20.01601 11.04884 11.048840000000002 20.01601 0 20.01601 C -11.04884 20.01601 -20.01601 11.048840000000002 -20.01601 0 C -20.01601 -11.04884 -11.048840000000002 -20.01601 0 -20.01601 z" stroke-linecap="round" />
</g>
		<g transform="matrix(0.74 0 0 0.74 7.699828214 10.0000010398)" id="VPigYwO2eePUYWrvXAwWa"  >
<path style="stroke: rgb(212,247,200); stroke-width: 0; stroke-dasharray: none; stroke-linecap: butt; stroke-dashoffset: 0; stroke-linejoin: miter; stroke-miterlimit: 4; fill: rgb(255,255,255); fill-rule: nonzero; opacity: 1;"  transform=" translate(0, 0)" d="M 0 -20.01601 C 11.04884 -20.01601 20.01601 -11.048840000000002 20.01601 0 C 20.01601 11.04884 11.048840000000002 20.01601 0 20.01601 C -11.04884 20.01601 -20.01601 11.048840000000002 -20.01601 0 C -20.01601 -11.04884 -11.048840000000002 -20.01601 0 -20.01601 z" stroke-linecap="round" />
</g>
		<g transform="matrix(0.5494797965 0 0 0.5494797965 -21.113626085 -7.1865446613)" id="cTlILr9OE_iFSh90EdqYt"  >
<path style="stroke: rgb(212,247,200); stroke-width: 0; stroke-dasharray: none; stroke-linecap: butt; stroke-dashoffset: 0; stroke-linejoin: miter; stroke-miterlimit: 4; fill: rgb(255,255,255); fill-rule: nonzero; opacity: 1;"  transform=" translate(0, 0)" d="M 0 -20.01601 C 11.04884 -20.01601 20.01601 -11.048840000000002 20.01601 0 C 20.01601 11.04884 11.048840000000002 20.01601 0 20.01601 C -11.04884 20.01601 -20.01601 11.048840000000002 -20.01601 0 C -20.01601 -11.04884 -11.048840000000002 -20.01601 0 -20.01601 z" stroke-linecap="round" />
</g>
		<g transform="matrix(0.7349565691 0 0 0.7349565691 29.4107283152 3.811849984)" id="BhNfLEzy7ZB360-VM2aA-"  >
<path style="stroke: rgb(212,247,200); stroke-width: 0; stroke-dasharray: none; stroke-linecap: butt; stroke-dashoffset: 0; stroke-linejoin: miter; stroke-miterlimit: 4; fill: rgb(255,255,255); fill-rule: nonzero; opacity: 1;"  transform=" translate(0, 0)" d="M 0 -20.01601 C 11.04884 -20.01601 20.01601 -11.048840000000002 20.01601 0 C 20.01601 11.04884 11.048840000000002 20.01601 0 20.01601 C -11.04884 20.01601 -20.01601 11.048840000000002 -20.01601 0 C -20.01601 -11.04884 -11.048840000000002 -20.01601 0 -20.01601 z" stroke-linecap="round" />
</g>
		<g transform="matrix(0.9665422147 0 0 -0.2239399652 -0.112019186 1.7334004438)" id="1XrsDTNDntJ4egd36Avvj"  >
<path style="stroke: rgb(109,233,33); stroke-width: 0; stroke-dasharray: none; stroke-linecap: butt; stroke-dashoffset: 0; stroke-linejoin: miter; stroke-miterlimit: 4; fill: rgb(255,255,255); fill-rule: nonzero; opacity: 1;"  transform=" translate(0.000005, 0)" d="M -39.83186 33.10652 C -39.83186 -7.17624 -32.26582 -39.83185999999999 -22.93263 -39.83185999999999 L 22.93263 -39.83185999999999 L 22.93263 -39.83185999999999 C 32.26582 -39.83185999999999 39.83186 -7.17622999999999 39.83186 33.10652 L 39.83186 33.10652 L 39.83186 33.10652 C 39.83186 36.820820000000005 39.13423 39.831860000000006 38.273649999999996 39.831860000000006 L -38.27366 39.831860000000006 L -38.27366 39.831860000000006 C -39.13423 39.831860000000006 -39.83187 36.820820000000005 -39.83187 33.10652 z" stroke-linecap="round" />
</g>
</g>
</g>
<g transform="matrix(1 0 0 1 105.8768844326 171.5852752053)" id="1RaImwoHUU5JJ2NHyTOPg"  >
<g style=""   >
		<g transform="matrix(0.9753557179 0 0 0.486594599 0.4734274403 -0.8690437165)" id="XP7ayw4uS2L5deOhtplFM"  >
<path style="stroke: rgb(249,85,77); stroke-width: 0; stroke-dasharray: none; stroke-linecap: butt; stroke-dashoffset: 0; stroke-linejoin: miter; stroke-miterlimit: 4; fill: rgb(255,255,255); fill-rule: nonzero; opacity: 1;"  transform=" translate(0.000005, 0)" d="M -32.22578 -6.02065 C -32.22578 -20.49334 -26.372590000000002 -32.22578 -19.15232 -32.22578 L 19.152310000000003 -32.22578 L 19.152310000000003 -32.22578 C 26.372580000000003 -32.22578 32.225770000000004 -20.49334 32.225770000000004 -6.02065 L 32.225770000000004 6.02065 L 32.225770000000004 6.02065 C 32.225770000000004 20.49334 26.372580000000006 32.22578 19.152310000000003 32.22578 L -19.15232 32.22578 L -19.15232 32.22578 C -26.37259 32.22578 -32.22578 20.49334 -32.22578 6.02065 z" stroke-linecap="round" />
</g>
		<g transform="matrix(1 0 0 1 -10.9421554025 -10.0080064051)" id="fDmiw2Tw_rh3Zb4uBxxuS"  >
<path style="stroke: rgb(131,164,20); stroke-width: 0; stroke-dasharray: none; stroke-linecap: butt; stroke-dashoffset: 0; stroke-linejoin: miter; stroke-miterlimit: 4; fill: rgb(255,255,255); fill-rule: nonzero; opacity: 1;"  transform=" translate(-20.0160128102, -20.0160128102)" d="M 20.016012810248196 0 C 31.0648518815052 0 40.03202562049639 8.96717373899119 40.03202562049639 20.016012810248196 C 40.03202562049639 31.0648518815052 31.0648518815052 40.03202562049639 20.016012810248196 40.03202562049639 C 8.96717373899119 40.03202562049639 0 31.0648518815052 0 20.016012810248196 C 0 8.96717373899119 8.96717373899119 0 20.016012810248196 0 Z" stroke-linecap="round" />
</g>
		<g transform="matrix(1 0 0 1 -0.9406582946 10.0080064051)" id="3E3F2ojSYNmU1RXLkfKEG"  >
<path style="stroke: rgb(131,164,20); stroke-width: 0; stroke-dasharray: none; stroke-linecap: butt; stroke-dashoffset: 0; stroke-linejoin: miter; stroke-miterlimit: 4; fill: rgb(255,255,255); fill-rule: nonzero; opacity: 1;"  transform=" translate(-20.0160128102, -20.0160128102)" d="M 20.016012810248196 0 C 31.0648518815052 0 40.03202562049639 8.96717373899119 40.03202562049639 20.016012810248196 C 40.03202562049639 31.0648518815052 31.0648518815052 40.03202562049639 20.016012810248196 40.03202562049639 C 8.96717373899119 40.03202562049639 0 31.0648518815052 0 20.016012810248196 C 0 8.96717373899119 8.96717373899119 0 20.016012810248196 0 Z" stroke-linecap="round" />
</g>
		<g transform="matrix(0.8159349591 0 0 0.8159349591 16.0753545157 -9.0080064051)" id="JhJoi8Sp2cUG_SPZA6pzK"  >
<path style="stroke: rgb(131,164,20); stroke-width: 0; stroke-dasharray: none; stroke-linecap: butt; stroke-dashoffset: 0; stroke-linejoin: miter; stroke-miterlimit: 4; fill: rgb(255,255,255); fill-rule: nonzero; opacity: 1;"  transform=" translate(0, 0)" d="M 0 -20.01601 C 11.04884 -20.01601 20.01601 -11.048840000000002 20.01601 0 C 20.01601 11.04884 11.048840000000002 20.01601 0 20.01601 C -11.04884 20.01601 -20.01601 11.048840000000002 -20.01601 0 C -20.01601 -11.04884 -11.048840000000002 -20.01601 0 -20.01601 z" stroke-linecap="round" />
</g>
		<g transform="matrix(0.7868700287 0 0 0.7868700287 24.8238579818 5.741994169)" id="lUTfeOFN2SXviTKAIhfMi"  >
<path style="stroke: rgb(131,164,20); stroke-width: 0; stroke-dasharray: none; stroke-linecap: butt; stroke-dashoffset: 0; stroke-linejoin: miter; stroke-miterlimit: 4; fill: rgb(255,255,255); fill-rule: nonzero; opacity: 1;"  transform=" translate(0, 0)" d="M 0 -20.01601 C 11.04884 -20.01601 20.01601 -11.048840000000002 20.01601 0 C 20.01601 11.04884 11.048840000000002 20.01601 0 20.01601 C -11.04884 20.01601 -20.01601 11.048840000000002 -20.01601 0 C -20.01601 -11.04884 -11.048840000000002 -20.01601 0 -20.01601 z" stroke-linecap="round" />
</g>
		<g transform="matrix(0.7868700287 0 0 0.7868700287 -24.8238601928 2.9957950005)" id="zzvz2M52vcottIntmZZsU"  >
<path style="stroke: rgb(131,164,20); stroke-width: 0; stroke-dasharray: none; stroke-linecap: butt; stroke-dashoffset: 0; stroke-linejoin: miter; stroke-miterlimit: 4; fill: rgb(255,255,255); fill-rule: nonzero; opacity: 1;"  transform=" translate(0, 0)" d="M 0 -20.01601 C 11.04884 -20.01601 20.01601 -11.048840000000002 20.01601 0 C 20.01601 11.04884 11.048840000000002 20.01601 0 20.01601 C -11.04884 20.01601 -20.01601 11.048840000000002 -20.01601 0 C -20.01601 -11.04884 -11.048840000000002 -20.01601 0 -20.01601 z" stroke-linecap="round" />
</g>
</g>
</g>
<g transform="matrix(-1.3314096191 0 0 1.3314096191 369.0527096343 348.7671491283)" id="Jx_Pfx4oCByASnCH9s8SG"  >
<g style=""   >
		<g transform="matrix(0.9753557179 0 0 0.486594599 0.4734274403 -0.8690437165)" id="GvS8ID2esmlrfccxTXvP_"  >
<path style="stroke: rgb(249,85,77); stroke-width: 0; stroke-dasharray: none; stroke-linecap: butt; stroke-dashoffset: 0; stroke-linejoin: miter; stroke-miterlimit: 4; fill: rgb(255,255,255); fill-rule: nonzero; opacity: 1;"  transform=" translate(0.000005, 0)" d="M -32.22578 -6.02065 C -32.22578 -20.49334 -26.372590000000002 -32.22578 -19.15232 -32.22578 L 19.152310000000003 -32.22578 L 19.152310000000003 -32.22578 C 26.372580000000003 -32.22578 32.225770000000004 -20.49334 32.225770000000004 -6.02065 L 32.225770000000004 6.02065 L 32.225770000000004 6.02065 C 32.225770000000004 20.49334 26.372580000000006 32.22578 19.152310000000003 32.22578 L -19.15232 32.22578 L -19.15232 32.22578 C -26.37259 32.22578 -32.22578 20.49334 -32.22578 6.02065 z" stroke-linecap="round" />
</g>
		<g transform="matrix(1 0 0 1 -10.9421554025 -10.0080064051)" id="S0Ph9BzobBtqOgPF_JFK2"  >
<path style="stroke: rgb(131,164,20); stroke-width: 0; stroke-dasharray: none; stroke-linecap: butt; stroke-dashoffset: 0; stroke-linejoin: miter; stroke-miterlimit: 4; fill: rgb(255,255,255); fill-rule: nonzero; opacity: 1;"  transform=" translate(-20.0160128102, -20.0160128102)" d="M 20.016012810248196 0 C 31.0648518815052 0 40.03202562049639 8.96717373899119 40.03202562049639 20.016012810248196 C 40.03202562049639 31.0648518815052 31.0648518815052 40.03202562049639 20.016012810248196 40.03202562049639 C 8.96717373899119 40.03202562049639 0 31.0648518815052 0 20.016012810248196 C 0 8.96717373899119 8.96717373899119 0 20.016012810248196 0 Z" stroke-linecap="round" />
</g>
		<g transform="matrix(1 0 0 1 -0.9406582946 10.0080064051)" id="lgoMpS5HxEPYUC6BBrswi"  >
<path style="stroke: rgb(131,164,20); stroke-width: 0; stroke-dasharray: none; stroke-linecap: butt; stroke-dashoffset: 0; stroke-linejoin: miter; stroke-miterlimit: 4; fill: rgb(255,255,255); fill-rule: nonzero; opacity: 1;"  transform=" translate(-20.0160128102, -20.0160128102)" d="M 20.016012810248196 0 C 31.0648518815052 0 40.03202562049639 8.96717373899119 40.03202562049639 20.016012810248196 C 40.03202562049639 31.0648518815052 31.0648518815052 40.03202562049639 20.016012810248196 40.03202562049639 C 8.96717373899119 40.03202562049639 0 31.0648518815052 0 20.016012810248196 C 0 8.96717373899119 8.96717373899119 0 20.016012810248196 0 Z" stroke-linecap="round" />
</g>
		<g transform="matrix(0.8159349591 0 0 0.8159349591 16.0753545157 -9.0080064051)" id="uiZ-_JShV7zAM7r3XLDN8"  >
<path style="stroke: rgb(131,164,20); stroke-width: 0; stroke-dasharray: none; stroke-linecap: butt; stroke-dashoffset: 0; stroke-linejoin: miter; stroke-miterlimit: 4; fill: rgb(255,255,255); fill-rule: nonzero; opacity: 1;"  transform=" translate(0, 0)" d="M 0 -20.01601 C 11.04884 -20.01601 20.01601 -11.048840000000002 20.01601 0 C 20.01601 11.04884 11.048840000000002 20.01601 0 20.01601 C -11.04884 20.01601 -20.01601 11.048840000000002 -20.01601 0 C -20.01601 -11.04884 -11.048840000000002 -20.01601 0 -20.01601 z" stroke-linecap="round" />
</g>
		<g transform="matrix(0.7868700287 0 0 0.7868700287 24.8238579818 5.741994169)" id="PjiIkcQnjBKjbUQQ2vRO5"  >
<path style="stroke: rgb(131,164,20); stroke-width: 0; stroke-dasharray: none; stroke-linecap: butt; stroke-dashoffset: 0; stroke-linejoin: miter; stroke-miterlimit: 4; fill: rgb(255,255,255); fill-rule: nonzero; opacity: 1;"  transform=" translate(0, 0)" d="M 0 -20.01601 C 11.04884 -20.01601 20.01601 -11.048840000000002 20.01601 0 C 20.01601 11.04884 11.048840000000002 20.01601 0 20.01601 C -11.04884 20.01601 -20.01601 11.048840000000002 -20.01601 0 C -20.01601 -11.04884 -11.048840000000002 -20.01601 0 -20.01601 z" stroke-linecap="round" />
</g>
		<g transform="matrix(0.7868700287 0 0 0.7868700287 -24.8238601928 2.9957950005)" id="uvTr5JOFOc9Wh9HJ9mPBN"  >
<path style="stroke: rgb(131,164,20); stroke-width: 0; stroke-dasharray: none; stroke-linecap: butt; stroke-dashoffset: 0; stroke-linejoin: miter; stroke-miterlimit: 4; fill: rgb(255,255,255); fill-rule: nonzero; opacity: 1;"  transform=" translate(0, 0)" d="M 0 -20.01601 C 11.04884 -20.01601 20.01601 -11.048840000000002 20.01601 0 C 20.01601 11.04884 11.048840000000002 20.01601 0 20.01601 C -11.04884 20.01601 -20.01601 11.048840000000002 -20.01601 0 C -20.01601 -11.04884 -11.048840000000002 -20.01601 0 -20.01601 z" stroke-linecap="round" />
</g>
</g>
</g>
<g transform="matrix(1 0 0 1 72.8265758303 290.0442443886)" id="R3E1IzWzgTZv0_ZBei0Sc"  >
<g style=""   >
		<g transform="matrix(0.8299 0 0 0.8299 -33.9076401508 1.2023630556)" id="ajF2s5MV4sdGelH-8pEsj"  >
<path style="stroke: rgb(251,249,11); stroke-width: 0; stroke-dasharray: none; stroke-linecap: butt; stroke-dashoffset: 0; stroke-linejoin: miter; stroke-miterlimit: 4; fill: rgb(255,255,255); fill-rule: nonzero; opacity: 1;"  transform=" translate(0, 0)" d="M 0 -20.01601 C 11.04884 -20.01601 20.01601 -11.048840000000002 20.01601 0 C 20.01601 11.04884 11.048840000000002 20.01601 0 20.01601 C -11.04884 20.01601 -20.01601 11.048840000000002 -20.01601 0 C -20.01601 -11.04884 -11.048840000000002 -20.01601 0 -20.01601 z" stroke-linecap="round" />
</g>
		<g transform="matrix(0.6357057019 0 0 0.5960942362 37.7946357086 -2.9136169266)" id="vC3SmWmrpNcGPfG-K7lwE"  >
<path style="stroke: rgb(251,249,11); stroke-width: 0; stroke-dasharray: none; stroke-linecap: butt; stroke-dashoffset: 0; stroke-linejoin: miter; stroke-miterlimit: 4; fill: rgb(255,255,255); fill-rule: nonzero; opacity: 1;"  transform=" translate(0, 0)" d="M 0 -20.01601 C 11.04884 -20.01601 20.01601 -11.048840000000002 20.01601 0 C 20.01601 11.04884 11.048840000000002 20.01601 0 20.01601 C -11.04884 20.01601 -20.01601 11.048840000000002 -20.01601 0 C -20.01601 -11.04884 -11.048840000000002 -20.01601 0 -20.01601 z" stroke-linecap="round" />
</g>
		<g transform="matrix(1 0 0 1 -10.3636049226 -13.7976369444)" id="JHmFD4-gAJogwXhI5_1co"  >
<path style="stroke: rgb(251,249,11); stroke-width: 0; stroke-dasharray: none; stroke-linecap: butt; stroke-dashoffset: 0; stroke-linejoin: miter; stroke-miterlimit: 4; fill: rgb(255,255,255); fill-rule: nonzero; opacity: 1;"  transform=" translate(0, 0)" d="M 0 -20.01601 C 11.04884 -20.01601 20.01601 -11.048840000000002 20.01601 0 C 20.01601 11.04884 11.048840000000002 20.01601 0 20.01601 C -11.04884 20.01601 -20.01601 11.048840000000002 -20.01601 0 C -20.01601 -11.04884 -11.048840000000002 -20.01601 0 -20.01601 z" stroke-linecap="round" />
</g>
		<g transform="matrix(0.8299 0 0 0.8299 17.0923598492 -13.7976369444)" id="QNQFHGG_ujGS7vM1ObuBR"  >
<path style="stroke: rgb(251,249,11); stroke-width: 0; stroke-dasharray: none; stroke-linecap: butt; stroke-dashoffset: 0; stroke-linejoin: miter; stroke-miterlimit: 4; fill: rgb(255,255,255); fill-rule: nonzero; opacity: 1;"  transform=" translate(0, 0)" d="M 0 -20.01601 C 11.04884 -20.01601 20.01601 -11.048840000000002 20.01601 0 C 20.01601 11.04884 11.048840000000002 20.01601 0 20.01601 C -11.04884 20.01601 -20.01601 11.048840000000002 -20.01601 0 C -20.01601 -11.04884 -11.048840000000002 -20.01601 0 -20.01601 z" stroke-linecap="round" />
</g>
		<g transform="matrix(0.7256750882 0 0 0.7256750882 -22.8887267844 18.5429348035)" id="rzMNl12uMb2i5p6Jri9YG"  >
<path style="stroke: rgb(251,249,11); stroke-width: 0; stroke-dasharray: none; stroke-linecap: butt; stroke-dashoffset: 0; stroke-linejoin: miter; stroke-miterlimit: 4; fill: rgb(255,255,255); fill-rule: nonzero; opacity: 1;"  transform=" translate(0, 0)" d="M 0 -20.01601 C 11.04884 -20.01601 20.01601 -11.048840000000002 20.01601 0 C 20.01601 11.04884 11.048840000000002 20.01601 0 20.01601 C -11.04884 20.01601 -20.01601 11.048840000000002 -20.01601 0 C -20.01601 -11.04884 -11.048840000000002 -20.01601 0 -20.01601 z" stroke-linecap="round" />
</g>
		<g transform="matrix(0.7344015991 0 0 0.7777586456 28.3662039217 13.0750911293)" id="mH5NgX0KtU4Os6fzv-E1t"  >
<path style="stroke: rgb(251,249,11); stroke-width: 0; stroke-dasharray: none; stroke-linecap: butt; stroke-dashoffset: 0; stroke-linejoin: miter; stroke-miterlimit: 4; fill: rgb(255,255,255); fill-rule: nonzero; opacity: 1;"  transform=" translate(0, 0)" d="M 0 -20.01601 C 11.04884 -20.01601 20.01601 -11.048840000000002 20.01601 0 C 20.01601 11.04884 11.048840000000002 20.01601 0 20.01601 C -11.04884 20.01601 -20.01601 11.048840000000002 -20.01601 0 C -20.01601 -11.04884 -11.048840000000002 -20.01601 0 -20.01601 z" stroke-linecap="round" />
</g>
		<g transform="matrix(0.8299 0 0 0.8299 4.5283086082 17.2023630556)" id="xJo1YbVv-JJ-k7IL115uX"  >
<path style="stroke: rgb(251,249,11); stroke-width: 0; stroke-dasharray: none; stroke-linecap: butt; stroke-dashoffset: 0; stroke-linejoin: miter; stroke-miterlimit: 4; fill: rgb(255,255,255); fill-rule: nonzero; opacity: 1;"  transform=" translate(0, 0)" d="M 0 -20.01601 C 11.04884 -20.01601 20.01601 -11.048840000000002 20.01601 0 C 20.01601 11.04884 11.048840000000002 20.01601 0 20.01601 C -11.04884 20.01601 -20.01601 11.048840000000002 -20.01601 0 C -20.01601 -11.04884 -11.048840000000002 -20.01601 0 -20.01601 z" stroke-linecap="round" />
</g>
		<g transform="matrix(0.8047706931 0 0 -0.2041955351 3.7563957093 1.2023630556)" id="JHlh2_W8Jfiqb95ACFtck"  >
<path style="stroke: rgb(150,243,58); stroke-width: 0; stroke-dasharray: none; stroke-linecap: butt; stroke-dashoffset: 0; stroke-linejoin: miter; stroke-miterlimit: 4; fill: rgb(255,255,255); fill-rule: nonzero; opacity: 1;"  transform=" translate(0, 0)" d="M -53.64291 36.05339 C -53.64291 -13.48451 -43.45347 -53.64290999999999 -30.88415 -53.64290999999999 L 30.88415 -53.64290999999999 L 30.88415 -53.64290999999999 C 43.45347 -53.64290999999999 53.64291 -13.484509999999993 53.64291 36.05339 L 53.64291 36.05339 L 53.64291 36.05339 C 53.64291 45.76782 51.64475 53.642920000000004 49.1799 53.642920000000004 L -49.1799 53.642920000000004 L -49.1799 53.642920000000004 C -51.64475 53.642920000000004 -53.64291 45.76782 -53.64291 36.05339000000001 z" stroke-linecap="round" />
</g>
</g>
</g>
<g transform="matrix(-0.8249682833 0 0 -0.8249682833 262.9504135077 440.3287187034)" id="pwB6eG0maTHwxKWjTWwgM"  >
<g style=""   >
		<g transform="matrix(0.8299 0 0 0.8299 -33.9076401508 1.2023630556)" id="AuzOJf_jZGgnyz4BQWbFt"  >
<path style="stroke: rgb(251,249,11); stroke-width: 0; stroke-dasharray: none; stroke-linecap: butt; stroke-dashoffset: 0; stroke-linejoin: miter; stroke-miterlimit: 4; fill: rgb(255,255,255); fill-rule: nonzero; opacity: 1;"  transform=" translate(0, 0)" d="M 0 -20.01601 C 11.04884 -20.01601 20.01601 -11.048840000000002 20.01601 0 C 20.01601 11.04884 11.048840000000002 20.01601 0 20.01601 C -11.04884 20.01601 -20.01601 11.048840000000002 -20.01601 0 C -20.01601 -11.04884 -11.048840000000002 -20.01601 0 -20.01601 z" stroke-linecap="round" />
</g>
		<g transform="matrix(0.6357057019 0 0 0.5960942362 37.7946357086 -2.9136169266)" id="JVRqVIFNEQducsYLH83X8"  >
<path style="stroke: rgb(251,249,11); stroke-width: 0; stroke-dasharray: none; stroke-linecap: butt; stroke-dashoffset: 0; stroke-linejoin: miter; stroke-miterlimit: 4; fill: rgb(255,255,255); fill-rule: nonzero; opacity: 1;"  transform=" translate(0, 0)" d="M 0 -20.01601 C 11.04884 -20.01601 20.01601 -11.048840000000002 20.01601 0 C 20.01601 11.04884 11.048840000000002 20.01601 0 20.01601 C -11.04884 20.01601 -20.01601 11.048840000000002 -20.01601 0 C -20.01601 -11.04884 -11.048840000000002 -20.01601 0 -20.01601 z" stroke-linecap="round" />
</g>
		<g transform="matrix(1 0 0 1 -10.3636049226 -13.7976369444)" id="QgAx0DX_E9ppghm7mE00N"  >
<path style="stroke: rgb(251,249,11); stroke-width: 0; stroke-dasharray: none; stroke-linecap: butt; stroke-dashoffset: 0; stroke-linejoin: miter; stroke-miterlimit: 4; fill: rgb(255,255,255); fill-rule: nonzero; opacity: 1;"  transform=" translate(0, 0)" d="M 0 -20.01601 C 11.04884 -20.01601 20.01601 -11.048840000000002 20.01601 0 C 20.01601 11.04884 11.048840000000002 20.01601 0 20.01601 C -11.04884 20.01601 -20.01601 11.048840000000002 -20.01601 0 C -20.01601 -11.04884 -11.048840000000002 -20.01601 0 -20.01601 z" stroke-linecap="round" />
</g>
		<g transform="matrix(0.8299 0 0 0.8299 17.0923598492 -13.7976369444)" id="cUnrCwq3_QugPBcKfSePT"  >
<path style="stroke: rgb(251,249,11); stroke-width: 0; stroke-dasharray: none; stroke-linecap: butt; stroke-dashoffset: 0; stroke-linejoin: miter; stroke-miterlimit: 4; fill: rgb(255,255,255); fill-rule: nonzero; opacity: 1;"  transform=" translate(0, 0)" d="M 0 -20.01601 C 11.04884 -20.01601 20.01601 -11.048840000000002 20.01601 0 C 20.01601 11.04884 11.048840000000002 20.01601 0 20.01601 C -11.04884 20.01601 -20.01601 11.048840000000002 -20.01601 0 C -20.01601 -11.04884 -11.048840000000002 -20.01601 0 -20.01601 z" stroke-linecap="round" />
</g>
		<g transform="matrix(0.7256750882 0 0 0.7256750882 -22.8887267844 18.5429348035)" id="olHcrU6EX2tsreA9D-JJe"  >
<path style="stroke: rgb(251,249,11); stroke-width: 0; stroke-dasharray: none; stroke-linecap: butt; stroke-dashoffset: 0; stroke-linejoin: miter; stroke-miterlimit: 4; fill: rgb(255,255,255); fill-rule: nonzero; opacity: 1;"  transform=" translate(0, 0)" d="M 0 -20.01601 C 11.04884 -20.01601 20.01601 -11.048840000000002 20.01601 0 C 20.01601 11.04884 11.048840000000002 20.01601 0 20.01601 C -11.04884 20.01601 -20.01601 11.048840000000002 -20.01601 0 C -20.01601 -11.04884 -11.048840000000002 -20.01601 0 -20.01601 z" stroke-linecap="round" />
</g>
		<g transform="matrix(0.7344015991 0 0 0.7777586456 28.3662039217 13.0750911293)" id="z9eqK4_JxVnYJn1mBtAMO"  >
<path style="stroke: rgb(251,249,11); stroke-width: 0; stroke-dasharray: none; stroke-linecap: butt; stroke-dashoffset: 0; stroke-linejoin: miter; stroke-miterlimit: 4; fill: rgb(255,255,255); fill-rule: nonzero; opacity: 1;"  transform=" translate(0, 0)" d="M 0 -20.01601 C 11.04884 -20.01601 20.01601 -11.048840000000002 20.01601 0 C 20.01601 11.04884 11.048840000000002 20.01601 0 20.01601 C -11.04884 20.01601 -20.01601 11.048840000000002 -20.01601 0 C -20.01601 -11.04884 -11.048840000000002 -20.01601 0 -20.01601 z" stroke-linecap="round" />
</g>
		<g transform="matrix(0.8299 0 0 0.8299 4.5283086082 17.2023630556)" id="ZdOkdev1Ygyd9ZhcQxa2s"  >
<path style="stroke: rgb(251,249,11); stroke-width: 0; stroke-dasharray: none; stroke-linecap: butt; stroke-dashoffset: 0; stroke-linejoin: miter; stroke-miterlimit: 4; fill: rgb(255,255,255); fill-rule: nonzero; opacity: 1;"  transform=" translate(0, 0)" d="M 0 -20.01601 C 11.04884 -20.01601 20.01601 -11.048840000000002 20.01601 0 C 20.01601 11.04884 11.048840000000002 20.01601 0 20.01601 C -11.04884 20.01601 -20.01601 11.048840000000002 -20.01601 0 C -20.01601 -11.04884 -11.048840000000002 -20.01601 0 -20.01601 z" stroke-linecap="round" />
</g>
		<g transform="matrix(0.8047706931 0 0 -0.2041955351 3.7563957093 1.2023630556)" id="ePwtCAd9fyY4zKx8vDUJN"  >
<path style="stroke: rgb(150,243,58); stroke-width: 0; stroke-dasharray: none; stroke-linecap: butt; stroke-dashoffset: 0; stroke-linejoin: miter; stroke-miterlimit: 4; fill: rgb(255,255,255); fill-rule: nonzero; opacity: 1;"  transform=" translate(0, -0.000005)" d="M -53.64291 36.05339 C -53.64291 -13.48451 -43.45347 -53.64290999999999 -30.88415 -53.64290999999999 L 30.88415 -53.64290999999999 L 30.88415 -53.64290999999999 C 43.45347 -53.64290999999999 53.64291 -13.484509999999993 53.64291 36.05339 L 53.64291 36.05339 L 53.64291 36.05339 C 53.64291 45.76782 51.64475 53.642920000000004 49.1799 53.642920000000004 L -49.1799 53.642920000000004 L -49.1799 53.642920000000004 C -51.64475 53.642920000000004 -53.64291 45.76782 -53.64291 36.05339000000001 z" stroke-linecap="round" />
</g>
</g>
</g>
<g transform="matrix(1 0 0 1 258.1302429823 215.1869438491)" id="URU6MtjS52rZdoXUMVyA7"  >
<g style=""   >
		<g transform="matrix(1.5000000162 0 0 -0.2659574284 0.4568852653 3.50800555)" id="UXhjd_-tWlXHVapWwfWSD"  >
<path style="stroke: rgb(34,174,194); stroke-width: 0; stroke-dasharray: none; stroke-linecap: butt; stroke-dashoffset: 0; stroke-linejoin: miter; stroke-miterlimit: 4; fill: rgb(255,255,255); fill-rule: nonzero; opacity: 1;"  transform=" translate(0, 0)" d="M -37.6301 22.39868 C -37.6301 -10.7543 -32.86489 -37.6301 -26.9867 -37.6301 L 26.986710000000002 -37.6301 L 26.986710000000002 -37.6301 C 32.864900000000006 -37.6301 37.63011 -10.754299999999997 37.63011 22.39868 L 37.63011 22.39868 L 37.63011 22.39868 C 37.63011 30.81076 36.42101 37.6301 34.929500000000004 37.6301 L -34.92949 37.6301 L -34.92949 37.6301 C -36.42099 37.6301 -37.6301 30.81076 -37.6301 22.39868 z" stroke-linecap="round" />
</g>
		<g transform="matrix(1 0 0 1 -36.886028276 2.8594847348)" id="Q_caLBxLn7gHvjj3m3X62"  >
<path style="stroke: rgb(76,105,98); stroke-width: 0; stroke-dasharray: none; stroke-linecap: butt; stroke-dashoffset: 0; stroke-linejoin: miter; stroke-miterlimit: 4; fill: rgb(255,255,255); fill-rule: nonzero; opacity: 1;"  transform=" translate(-20.0160128102, -20.0160128102)" d="M 20.016012810248196 0 C 31.0648518815052 0 40.03202562049639 8.96717373899119 40.03202562049639 20.016012810248196 C 40.03202562049639 31.0648518815052 31.0648518815052 40.03202562049639 20.016012810248196 40.03202562049639 C 8.96717373899119 40.03202562049639 0 31.0648518815052 0 20.016012810248196 C 0 8.96717373899119 8.96717373899119 0 20.016012810248196 0 Z" stroke-linecap="round" />
</g>
		<g transform="matrix(0.8821202665 0 0 0.8821202665 -11.767080022 -14.1485250042)" id="uDG8UfCt17o0UxOhSKUni"  >
<path style="stroke: rgb(76,105,98); stroke-width: 0; stroke-dasharray: none; stroke-linecap: butt; stroke-dashoffset: 0; stroke-linejoin: miter; stroke-miterlimit: 4; fill: rgb(255,255,255); fill-rule: nonzero; opacity: 1;"  transform=" translate(0, 0)" d="M 0 -20.01601 C 11.04884 -20.01601 20.01601 -11.048840000000002 20.01601 0 C 20.01601 11.04884 11.048840000000002 20.01601 0 20.01601 C -11.04884 20.01601 -20.01601 11.048840000000002 -20.01601 0 C -20.01601 -11.04884 -11.048840000000002 -20.01601 0 -20.01601 z" stroke-linecap="round" />
</g>
		<g transform="matrix(0.7752870711 0 0 0.7752870711 41.3838851396 -2.1028823058)" id="c3htoro300KD_Kw8QWfsy"  >
<path style="stroke: rgb(76,105,98); stroke-width: 0; stroke-dasharray: none; stroke-linecap: butt; stroke-dashoffset: 0; stroke-linejoin: miter; stroke-miterlimit: 4; fill: rgb(255,255,255); fill-rule: nonzero; opacity: 1;"  transform=" translate(0, 0)" d="M 0 -20.01601 C 11.04884 -20.01601 20.01601 -11.048840000000002 20.01601 0 C 20.01601 11.04884 11.048840000000002 20.01601 0 20.01601 C -11.04884 20.01601 -20.01601 11.048840000000002 -20.01601 0 C -20.01601 -11.04884 -11.048840000000002 -20.01601 0 -20.01601 z" stroke-linecap="round" />
</g>
		<g transform="matrix(0.8821202665 0 0 0.8821202665 16.0835559504 -17.1565280755)" id="5gQEAhyduuEFlCeZbU7Vp"  >
<path style="stroke: rgb(76,105,98); stroke-width: 0; stroke-dasharray: none; stroke-linecap: butt; stroke-dashoffset: 0; stroke-linejoin: miter; stroke-miterlimit: 4; fill: rgb(255,255,255); fill-rule: nonzero; opacity: 1;"  transform=" translate(0, 0)" d="M 0 -20.01601 C 11.04884 -20.01601 20.01601 -11.048840000000002 20.01601 0 C 20.01601 11.04884 11.048840000000002 20.01601 0 20.01601 C -11.04884 20.01601 -20.01601 11.048840000000002 -20.01601 0 C -20.01601 -11.04884 -11.048840000000002 -20.01601 0 -20.01601 z" stroke-linecap="round" />
</g>
		<g transform="matrix(0.8821202665 0 0 0.8821202665 -18.2295002005 17.1565280755)" id="HMEyuY5gnUmlXeTOGahTu"  >
<path style="stroke: rgb(76,105,98); stroke-width: 0; stroke-dasharray: none; stroke-linecap: butt; stroke-dashoffset: 0; stroke-linejoin: miter; stroke-miterlimit: 4; fill: rgb(255,255,255); fill-rule: nonzero; opacity: 1;"  transform=" translate(0, 0)" d="M 0 -20.01601 C 11.04884 -20.01601 20.01601 -11.048840000000002 20.01601 0 C 20.01601 11.04884 11.048840000000002 20.01601 0 20.01601 C -11.04884 20.01601 -20.01601 11.048840000000002 -20.01601 0 C -20.01601 -11.04884 -11.048840000000002 -20.01601 0 -20.01601 z" stroke-linecap="round" />
</g>
		<g transform="matrix(0.8821202665 0 0 0.8821202665 5.8894505322 15.5536457696)" id="QKN_qSfrI_qta5GO1Ntc8"  >
<path style="stroke: rgb(76,105,98); stroke-width: 0; stroke-dasharray: none; stroke-linecap: butt; stroke-dashoffset: 0; stroke-linejoin: miter; stroke-miterlimit: 4; fill: rgb(255,255,255); fill-rule: nonzero; opacity: 1;"  transform=" translate(0, 0)" d="M 0 -20.01601 C 11.04884 -20.01601 20.01601 -11.048840000000002 20.01601 0 C 20.01601 11.04884 11.048840000000002 20.01601 0 20.01601 C -11.04884 20.01601 -20.01601 11.048840000000002 -20.01601 0 C -20.01601 -11.04884 -11.048840000000002 -20.01601 0 -20.01601 z" stroke-linecap="round" />
</g>
		<g transform="matrix(0.6675774691 0 0 0.6675774691 29.4457951231 16.8702447226)" id="6DVr6a7cPrzdOS4KdH79_"  >
<path style="stroke: rgb(76,105,98); stroke-width: 0; stroke-dasharray: none; stroke-linecap: butt; stroke-dashoffset: 0; stroke-linejoin: miter; stroke-miterlimit: 4; fill: rgb(255,255,255); fill-rule: nonzero; opacity: 1;"  transform=" translate(0, 0)" d="M 0 -20.01601 C 11.04884 -20.01601 20.01601 -11.048840000000002 20.01601 0 C 20.01601 11.04884 11.048840000000002 20.01601 0 20.01601 C -11.04884 20.01601 -20.01601 11.048840000000002 -20.01601 0 C -20.01601 -11.04884 -11.048840000000002 -20.01601 0 -20.01601 z" stroke-linecap="round" />
</g>
</g>
</g>
<g transform="matrix(1 0 0 1 398.5318554096 106.885513811)" id="lQ6OX0hDWrrg_H5EPHy1h"  >
<g style=""   >
		<g transform="matrix(1 0 0 1 8.9149054419 -11.1329071183)" id="yhuWkv02iPEskPh01lv1i"  >
<path style="stroke: rgb(166,25,53); stroke-width: 0; stroke-dasharray: none; stroke-linecap: butt; stroke-dashoffset: 0; stroke-linejoin: miter; stroke-miterlimit: 4; fill: rgb(255,255,255); fill-rule: nonzero; opacity: 1;"  transform=" translate(-25.6204963971, -25.6204963971)" d="M 25.620496397117694 0 C 39.763010408326664 0 51.24099279423539 11.477982385908726 51.24099279423539 25.620496397117694 C 51.24099279423539 39.763010408326664 39.763010408326664 51.24099279423539 25.620496397117694 51.24099279423539 C 11.477982385908726 51.24099279423539 0 39.763010408326664 0 25.620496397117694 C 0 11.477982385908726 11.477982385908726 0 25.620496397117694 0 Z" stroke-linecap="round" />
</g>
		<g transform="matrix(0.8148436874 0 0 0.8278766386 33.9794170698 4.028062528)" id="PjgqqiyvwQPE1oHUACMEv"  >
<path style="stroke: rgb(166,25,53); stroke-width: 0; stroke-dasharray: none; stroke-linecap: butt; stroke-dashoffset: 0; stroke-linejoin: miter; stroke-miterlimit: 4; fill: rgb(255,255,255); fill-rule: nonzero; opacity: 1;"  transform=" translate(0, 0)" d="M 0 -25.6205 C 14.14251 -25.6205 25.6205 -14.14252 25.6205 0 C 25.6205 14.14251 14.14252 25.6205 0 25.6205 C -14.14251 25.6205 -25.6205 14.14252 -25.6205 0 C -25.6205 -14.14251 -14.14252 -25.6205 0 -25.6205 z" stroke-linecap="round" />
</g>
		<g transform="matrix(0.8896875 0 0 0.8796875 13.7908093679 14.2153699216)" id="p76p9iQGLO-ZSoBOxZedH"  >
<path style="stroke: rgb(166,25,53); stroke-width: 0; stroke-dasharray: none; stroke-linecap: butt; stroke-dashoffset: 0; stroke-linejoin: miter; stroke-miterlimit: 4; fill: rgb(255,255,255); fill-rule: nonzero; opacity: 1;"  transform=" translate(0, 0)" d="M 0 -25.6205 C 14.14251 -25.6205 25.6205 -14.14252 25.6205 0 C 25.6205 14.14251 14.14252 25.6205 0 25.6205 C -14.14251 25.6205 -25.6205 14.14252 -25.6205 0 C -25.6205 -14.14251 -14.14252 -25.6205 0 -25.6205 z" stroke-linecap="round" />
</g>
		<g transform="matrix(0.8702456935 0.1849764324 -0.1828973155 0.8604642175 -13.8793331518 -1.1329087024)" id="jmi5XWC9ho8_Ho305tKVL"  >
<path style="stroke: rgb(166,25,53); stroke-width: 0; stroke-dasharray: none; stroke-linecap: butt; stroke-dashoffset: 0; stroke-linejoin: miter; stroke-miterlimit: 4; fill: rgb(255,255,255); fill-rule: nonzero; opacity: 1;"  transform=" translate(0, 0)" d="M 0 -25.6205 C 14.14251 -25.6205 25.6205 -14.14252 25.6205 0 C 25.6205 14.14251 14.14252 25.6205 0 25.6205 C -14.14251 25.6205 -25.6205 14.14252 -25.6205 0 C -25.6205 -14.14251 -14.14252 -25.6205 0 -25.6205 z" stroke-linecap="round" />
</g>
		<g transform="matrix(0.7096874628 0 0 0.7393749579 -13.8793331518 17.8102474065)" id="KCCO9zHfpyRuVAKm5zKI_"  >
<path style="stroke: rgb(166,25,53); stroke-width: 0; stroke-dasharray: none; stroke-linecap: butt; stroke-dashoffset: 0; stroke-linejoin: miter; stroke-miterlimit: 4; fill: rgb(255,255,255); fill-rule: nonzero; opacity: 1;"  transform=" translate(0, 0)" d="M 0 -25.6205 C 14.14251 -25.6205 25.6205 -14.14252 25.6205 0 C 25.6205 14.14251 14.14252 25.6205 0 25.6205 C -14.14251 25.6205 -25.6205 14.14252 -25.6205 0 C -25.6205 -14.14251 -14.14252 -25.6205 0 -25.6205 z" stroke-linecap="round" />
</g>
		<g transform="matrix(0.7096874628 0 0 0.7393749579 -36.6735717456 10.4875892788)" id="d7TJ-RZWV_hgtTi0Ko1ZC"  >
<path style="stroke: rgb(166,25,53); stroke-width: 0; stroke-dasharray: none; stroke-linecap: butt; stroke-dashoffset: 0; stroke-linejoin: miter; stroke-miterlimit: 4; fill: rgb(255,255,255); fill-rule: nonzero; opacity: 1;"  transform=" translate(0, 0)" d="M 0 -25.6205 C 14.14251 -25.6205 25.6205 -14.14252 25.6205 0 C 25.6205 14.14251 14.14252 25.6205 0 25.6205 C -14.14251 25.6205 -25.6205 14.14252 -25.6205 0 C -25.6205 -14.14251 -14.14252 -25.6205 0 -25.6205 z" stroke-linecap="round" />
</g>
</g>
</g>
<g transform="matrix(-0.7123228037 0 0 0.640104268 84.2702420758 63.5110404053)" id="naLCbG6C4bjldSF8tt3A5"  >
<g style=""   >
		<g transform="matrix(1 0 0 1 8.9149054419 -11.1329071183)" id="6-_bhWNH5XGMpVh0CMkLj"  >
<path style="stroke: rgb(166,25,53); stroke-width: 0; stroke-dasharray: none; stroke-linecap: butt; stroke-dashoffset: 0; stroke-linejoin: miter; stroke-miterlimit: 4; fill: rgb(255,255,255); fill-rule: nonzero; opacity: 1;"  transform=" translate(-25.6204963971, -25.6204963971)" d="M 25.620496397117694 0 C 39.763010408326664 0 51.24099279423539 11.477982385908726 51.24099279423539 25.620496397117694 C 51.24099279423539 39.763010408326664 39.763010408326664 51.24099279423539 25.620496397117694 51.24099279423539 C 11.477982385908726 51.24099279423539 0 39.763010408326664 0 25.620496397117694 C 0 11.477982385908726 11.477982385908726 0 25.620496397117694 0 Z" stroke-linecap="round" />
</g>
		<g transform="matrix(0.8148436874 0 0 0.8278766386 33.9794170698 4.028062528)" id="msy4FVIQLSQdt-FsBIoaU"  >
<path style="stroke: rgb(166,25,53); stroke-width: 0; stroke-dasharray: none; stroke-linecap: butt; stroke-dashoffset: 0; stroke-linejoin: miter; stroke-miterlimit: 4; fill: rgb(255,255,255); fill-rule: nonzero; opacity: 1;"  transform=" translate(0, 0)" d="M 0 -25.6205 C 14.14251 -25.6205 25.6205 -14.14252 25.6205 0 C 25.6205 14.14251 14.14252 25.6205 0 25.6205 C -14.14251 25.6205 -25.6205 14.14252 -25.6205 0 C -25.6205 -14.14251 -14.14252 -25.6205 0 -25.6205 z" stroke-linecap="round" />
</g>
		<g transform="matrix(0.8896875 0 0 0.8796875 13.7908093679 14.2153699216)" id="XBO0aQG8Qa1SNFmuO3Lvt"  >
<path style="stroke: rgb(166,25,53); stroke-width: 0; stroke-dasharray: none; stroke-linecap: butt; stroke-dashoffset: 0; stroke-linejoin: miter; stroke-miterlimit: 4; fill: rgb(255,255,255); fill-rule: nonzero; opacity: 1;"  transform=" translate(0, 0)" d="M 0 -25.6205 C 14.14251 -25.6205 25.6205 -14.14252 25.6205 0 C 25.6205 14.14251 14.14252 25.6205 0 25.6205 C -14.14251 25.6205 -25.6205 14.14252 -25.6205 0 C -25.6205 -14.14251 -14.14252 -25.6205 0 -25.6205 z" stroke-linecap="round" />
</g>
		<g transform="matrix(0.8702456935 0.1849764324 -0.1828973155 0.8604642175 -13.8793331518 -1.1329087024)" id="tZ5luM5Ng7uIKHHE7Qea1"  >
<path style="stroke: rgb(166,25,53); stroke-width: 0; stroke-dasharray: none; stroke-linecap: butt; stroke-dashoffset: 0; stroke-linejoin: miter; stroke-miterlimit: 4; fill: rgb(255,255,255); fill-rule: nonzero; opacity: 1;"  transform=" translate(0, 0)" d="M 0 -25.6205 C 14.14251 -25.6205 25.6205 -14.14252 25.6205 0 C 25.6205 14.14251 14.14252 25.6205 0 25.6205 C -14.14251 25.6205 -25.6205 14.14252 -25.6205 0 C -25.6205 -14.14251 -14.14252 -25.6205 0 -25.6205 z" stroke-linecap="round" />
</g>
		<g transform="matrix(0.7096874628 0 0 0.7393749579 -13.8793331518 17.8102474065)" id="zpgvNYvNAPFEB9Izl4HVl"  >
<path style="stroke: rgb(166,25,53); stroke-width: 0; stroke-dasharray: none; stroke-linecap: butt; stroke-dashoffset: 0; stroke-linejoin: miter; stroke-miterlimit: 4; fill: rgb(255,255,255); fill-rule: nonzero; opacity: 1;"  transform=" translate(0, 0)" d="M 0 -25.6205 C 14.14251 -25.6205 25.6205 -14.14252 25.6205 0 C 25.6205 14.14251 14.14252 25.6205 0 25.6205 C -14.14251 25.6205 -25.6205 14.14252 -25.6205 0 C -25.6205 -14.14251 -14.14252 -25.6205 0 -25.6205 z" stroke-linecap="round" />
</g>
		<g transform="matrix(0.7096874628 0 0 0.7393749579 -36.6735717456 10.4875892788)" id="yyUoFbEG0d4OpZGOMKOGy"  >
<path style="stroke: rgb(166,25,53); stroke-width: 0; stroke-dasharray: none; stroke-linecap: butt; stroke-dashoffset: 0; stroke-linejoin: miter; stroke-miterlimit: 4; fill: rgb(255,255,255); fill-rule: nonzero; opacity: 1;"  transform=" translate(0, 0)" d="M 0 -25.6205 C 14.14251 -25.6205 25.6205 -14.14252 25.6205 0 C 25.6205 14.14251 14.14252 25.6205 0 25.6205 C -14.14251 25.6205 -25.6205 14.14252 -25.6205 0 C -25.6205 -14.14251 -14.14252 -25.6205 0 -25.6205 z" stroke-linecap="round" />
</g>
</g>
</g>
<g transform="matrix(1 0 0 1 232.2559645524 106.885513811)" id="1dyeKZfj8ZWeh2NxKYjOq"  >
<g style=""   >
		<g transform="matrix(1 0 0 1 -1.6581225263 -12.81025)" id="MUJkF0OasGP4wxjvHEyRH"  >
<path style="stroke: rgb(67,23,150); stroke-width: 0; stroke-dasharray: none; stroke-linecap: butt; stroke-dashoffset: 0; stroke-linejoin: miter; stroke-miterlimit: 4; fill: rgb(255,255,255); fill-rule: nonzero; opacity: 1;"  transform=" translate(-12.81025, -12.81025)" d="M 12.81025 0 C 19.88151 0 25.6205 5.73899 25.6205 12.81025 C 25.6205 19.88151 19.88151 25.6205 12.81025 25.6205 C 5.73899 25.6205 0 19.88151 0 12.81025 C 0 5.73899 5.73899 0 12.81025 0 z" stroke-linecap="round" />
</g>
		<g transform="matrix(1 0 0 1 -1.6581225263 12.81025)" id="cnGoKIyYuaFu0FZjrU7dM"  >
<path style="stroke: rgb(67,23,150); stroke-width: 0; stroke-dasharray: none; stroke-linecap: butt; stroke-dashoffset: 0; stroke-linejoin: miter; stroke-miterlimit: 4; fill: rgb(255,255,255); fill-rule: nonzero; opacity: 1;"  transform=" translate(-12.81025, -12.81025)" d="M 12.81025 0 C 19.88151 0 25.6205 5.73899 25.6205 12.81025 C 25.6205 19.88151 19.88151 25.6205 12.81025 25.6205 C 5.73899 25.6205 0 19.88151 0 12.81025 C 0 5.73899 5.73899 0 12.81025 0 z" stroke-linecap="round" />
</g>
		<g transform="matrix(1 0 0 1 16.7886322523 -8.4027266813)" id="cDyum7o2uhSOEzmys_nDT"  >
<path style="stroke: rgb(67,23,150); stroke-width: 0; stroke-dasharray: none; stroke-linecap: butt; stroke-dashoffset: 0; stroke-linejoin: miter; stroke-miterlimit: 4; fill: rgb(255,255,255); fill-rule: nonzero; opacity: 1;"  transform=" translate(-12.81025, -12.81025)" d="M 12.81025 0 C 19.88151 0 25.6205 5.73899 25.6205 12.81025 C 25.6205 19.88151 19.88151 25.6205 12.81025 25.6205 C 5.73899 25.6205 0 19.88151 0 12.81025 C 0 5.73899 5.73899 0 12.81025 0 z" stroke-linecap="round" />
</g>
		<g transform="matrix(1.6842102886 0 0 0.8878158038 0.3434703821 0.6953530228)" id="4Ix4KTxsMUA-dLcvKAVsd"  >
<path style="stroke: rgb(30,30,207); stroke-width: 0; stroke-dasharray: none; stroke-linecap: butt; stroke-dashoffset: 0; stroke-linejoin: miter; stroke-miterlimit: 4; fill: rgb(255,255,255); fill-rule: nonzero; opacity: 1;"  transform=" translate(0, 0)" d="M -15.21217 -7.94267 C -15.21217 -11.9575 -13.496500000000001 -15.21217 -11.38012 -15.21217 L 11.38012 -15.21217 L 11.38012 -15.21217 C 13.4965 -15.21217 15.21217 -11.9575 15.21217 -7.942670000000001 L 15.21217 7.942669999999999 L 15.21217 7.942669999999999 C 15.21217 11.9575 13.496500000000001 15.212169999999999 11.38012 15.212169999999999 L -11.38012 15.212169999999999 L -11.38012 15.212169999999999 C -13.4965 15.212169999999999 -15.21217 11.9575 -15.21217 7.942669999999999 z" stroke-linecap="round" />
</g>
		<g transform="matrix(1.1255312033 0 0 1.1255312033 -17.0764563137 -8.2221796941)" id="LRvPjGwoAm8m7XXLQVUij"  >
<path style="stroke: rgb(67,23,150); stroke-width: 0; stroke-dasharray: none; stroke-linecap: butt; stroke-dashoffset: 0; stroke-linejoin: miter; stroke-miterlimit: 4; fill: rgb(255,255,255); fill-rule: nonzero; opacity: 1;"  transform=" translate(0, 0)" d="M 0 -12.81025 C 7.07126 -12.81025 12.81025 -7.07126 12.81025 0 C 12.81025 7.07126 7.07126 12.81025 0 12.81025 C -7.07126 12.81025 -12.81025 7.07126 -12.81025 0 C -12.81025 -7.07126 -7.07126 -12.81025 0 -12.81025 z" stroke-linecap="round" />
</g>
		<g transform="matrix(1.1882499032 0 0 1.0937498427 -21.9911907402 7.1961542535)" id="J84t-rssbKM080fw7r-zx"  >
<path style="stroke: rgb(67,23,150); stroke-width: 0; stroke-dasharray: none; stroke-linecap: butt; stroke-dashoffset: 0; stroke-linejoin: miter; stroke-miterlimit: 4; fill: rgb(255,255,255); fill-rule: nonzero; opacity: 1;"  transform=" translate(0, 0)" d="M 0 -12.81025 C 7.07126 -12.81025 12.81025 -7.07126 12.81025 0 C 12.81025 7.07126 7.07126 12.81025 0 12.81025 C -7.07126 12.81025 -12.81025 7.07126 -12.81025 0 C -12.81025 -7.07126 -7.07126 -12.81025 0 -12.81025 z" stroke-linecap="round" />
</g>
		<g transform="matrix(1.2971873879 0 0 1.0156873537 20.5956743268 8.1961540933)" id="_Y_JMJmGwmAx21njtVFxp"  >
<path style="stroke: rgb(67,23,150); stroke-width: 0; stroke-dasharray: none; stroke-linecap: butt; stroke-dashoffset: 0; stroke-linejoin: miter; stroke-miterlimit: 4; fill: rgb(255,255,255); fill-rule: nonzero; opacity: 1;"  transform=" translate(0, 0)" d="M 0 -12.81025 C 7.07126 -12.81025 12.81025 -7.07126 12.81025 0 C 12.81025 7.07126 7.07126 12.81025 0 12.81025 C -7.07126 12.81025 -12.81025 7.07126 -12.81025 0 C -12.81025 -7.07126 -7.07126 -12.81025 0 -12.81025 z" stroke-linecap="round" />
</g>
</g>
</g>
</svg>